<?xml version="1.0" encoding="UTF-8" standalone="no"?>
<svg
   xmlns:dc="http://purl.org/dc/elements/1.1/"
   xmlns:cc="http://creativecommons.org/ns#"
   xmlns:rdf="http://www.w3.org/1999/02/22-rdf-syntax-ns#"
   xmlns:svg="http://www.w3.org/2000/svg"
   xmlns="http://www.w3.org/2000/svg"
   xmlns:sodipodi="http://sodipodi.sourceforge.net/DTD/sodipodi-0.dtd"
   xmlns:inkscape="http://www.inkscape.org/namespaces/inkscape"
   width="26.327686mm"
   height="26.327686mm"
   viewBox="0 0 26.327686 26.327686"
   version="1.1"
   id="svg158"
   inkscape:version="1.0 (4035a4fb49, 2020-05-01)"
   sodipodi:docname="objective.svg">
  <defs
     id="defs152" />
  <sodipodi:namedview
     id="base"
     pagecolor="#ffffff"
     bordercolor="#666666"
     borderopacity="1.0"
     inkscape:pageopacity="0.0"
     inkscape:pageshadow="2"
     inkscape:zoom="3.959798"
     inkscape:cx="96.789092"
     inkscape:cy="76.929991"
     inkscape:document-units="mm"
     inkscape:current-layer="layer1"
     inkscape:document-rotation="0"
     showgrid="false"
     inkscape:snap-bbox="false"
     showborder="true"
     fit-margin-top="0"
     fit-margin-left="0"
     fit-margin-right="0"
     fit-margin-bottom="0"
     inkscape:window-width="1920"
     inkscape:window-height="1017"
     inkscape:window-x="-8"
     inkscape:window-y="-8"
     inkscape:window-maximized="1" />
  <metadata
     id="metadata155">
    <rdf:RDF>
      <cc:Work
         rdf:about="">
        <dc:format>image/svg+xml</dc:format>
        <dc:type
           rdf:resource="http://purl.org/dc/dcmitype/StillImage" />
        <dc:title />
      </cc:Work>
    </rdf:RDF>
  </metadata>
  <g
     inkscape:label="Layer 1"
     inkscape:groupmode="layer"
     id="layer1">
    <g
       id="g1977"
       transform="translate(-178.94271,-191.65219)">
      <path
         d="m 181.06092,192.23155 h 22.091 c 0.85252,0 1.53885,0.68633 1.53885,1.53884 v 22.09101 c 0,0.85251 -0.68633,1.53884 -1.53885,1.53884 h -22.091 c -0.85252,0 -1.53884,-0.68633 -1.53884,-1.53884 v -22.09101 c 0,-0.85251 0.68632,-1.53884 1.53884,-1.53884 z"
         style="opacity:1;fill:#ff2d2d;fill-opacity:1;stroke:#1d1d1d;stroke-width:1.15873;stroke-linejoin:bevel;stroke-opacity:1;paint-order:markers fill stroke"
         id="rect961-9-8-6" />
      <path
         d="m 179.52208,210.62729 h 25.38829 v 6.77294 h -25.38829 z"
         style="opacity:1;fill:#1d1d1d;fill-opacity:1;stroke:none;stroke-width:0.939541;stroke-linejoin:miter;stroke-miterlimit:4;stroke-dasharray:none;stroke-opacity:1;paint-order:markers fill stroke"
         id="rect1032-3-6-5" />
      <g
         style="font-style:normal;font-weight:normal;font-size:3.88056px;line-height:1.25;font-family:sans-serif;text-align:center;text-anchor:middle;fill:#000000;fill-opacity:1;stroke:none;stroke-width:0.0939684"
         id="text1051-2-0-9"
         aria-label="OBJECTIVE">
        <path
           id="path21"
           style="font-style:normal;font-variant:normal;font-weight:600;font-stretch:normal;font-size:3.88056px;font-family:Montserrat;-inkscape-font-specification:'Montserrat Semi-Bold';text-align:center;text-anchor:middle;fill:#ffffff;fill-opacity:1;stroke-width:0.0939684"
           d="m 183.28868,213.85102 q 0,0.67455 -0.38654,1.07246 -0.38654,0.39602 -1.06867,0.39602 -0.68024,0 -1.06678,-0.39602 -0.38654,-0.39791 -0.38654,-1.07246 0,-0.68023 0.38654,-1.07435 0.38654,-0.39602 1.06678,-0.39602 0.67834,0 1.06677,0.39602 0.38844,0.39412 0.38844,1.07435 z m -0.96446,0.71434 q 0.10611,-0.12884 0.15727,-0.30316 0.0512,-0.17622 0.0512,-0.41307 0,-0.25391 -0.0587,-0.43202 -0.0587,-0.17811 -0.15348,-0.28801 -0.0966,-0.11369 -0.22358,-0.16485 -0.12506,-0.0512 -0.26149,-0.0512 -0.13832,0 -0.26148,0.0493 -0.12127,0.0493 -0.22359,0.16295 -0.0947,0.10611 -0.15537,0.2937 -0.0587,0.18569 -0.0587,0.43201 0,0.25201 0.0568,0.43012 0.0587,0.17622 0.15348,0.28801 0.0947,0.1118 0.22169,0.16485 0.12696,0.0531 0.26717,0.0531 0.14022,0 0.26717,-0.0531 0.12695,-0.055 0.22169,-0.16864 z" />
        <path
           id="path23"
           style="font-style:normal;font-variant:normal;font-weight:600;font-stretch:normal;font-size:3.88056px;font-family:Montserrat;-inkscape-font-specification:'Montserrat Semi-Bold';text-align:center;text-anchor:middle;fill:#ffffff;fill-opacity:1;stroke-width:0.0939684"
           d="m 186.25594,214.39673 q 0,0.20464 -0.0834,0.36569 -0.0815,0.16106 -0.22548,0.26717 -0.16674,0.12506 -0.36759,0.17811 -0.19896,0.0531 -0.50592,0.0531 h -1.23162 v -2.82137 h 1.0952 q 0.34106,0 0.49833,0.0227 0.15916,0.0227 0.31454,0.10043 0.16106,0.0815 0.23874,0.21979 0.0796,0.13643 0.0796,0.31265 0,0.20463 -0.10801,0.3619 -0.108,0.15538 -0.30506,0.24254 v 0.0152 q 0.27664,0.055 0.4377,0.22737 0.16295,0.17243 0.16295,0.45476 z m -0.93224,-1.15962 q 0,-0.0701 -0.036,-0.14022 -0.0341,-0.0701 -0.12317,-0.10421 -0.0796,-0.0303 -0.19895,-0.0322 -0.11748,-0.004 -0.33159,-0.004 h -0.0682 v 0.59687 h 0.11368 q 0.17243,0 0.2937,-0.006 0.12127,-0.006 0.19137,-0.0379 0.0985,-0.0436 0.12885,-0.1118 0.0303,-0.0701 0.0303,-0.16105 z m 0.17811,1.14825 q 0,-0.13453 -0.0531,-0.20654 -0.0512,-0.0739 -0.17621,-0.10989 -0.0853,-0.0246 -0.23496,-0.0265 -0.14969,-0.002 -0.31264,-0.002 h -0.15916 v 0.70298 h 0.0531 q 0.30696,0 0.43959,-0.002 0.13264,-0.002 0.24443,-0.0493 0.11369,-0.0474 0.15538,-0.12506 0.0436,-0.0796 0.0436,-0.1819 z" />
        <path
           id="path25"
           style="font-style:normal;font-variant:normal;font-weight:600;font-stretch:normal;font-size:3.88056px;font-family:Montserrat;-inkscape-font-specification:'Montserrat Semi-Bold';text-align:center;text-anchor:middle;fill:#ffffff;fill-opacity:1;stroke-width:0.0939684"
           d="m 188.26822,214.43273 q 0,0.18569 -0.0663,0.34864 -0.0663,0.16106 -0.19706,0.27285 -0.13832,0.11938 -0.33349,0.18569 -0.19516,0.0644 -0.48317,0.0644 -0.19517,0 -0.3676,-0.0152 -0.17242,-0.0133 -0.30317,-0.0398 v -0.57223 h 0.0682 q 0.0909,0.0341 0.18948,0.0644 0.0985,0.0284 0.25201,0.0284 0.19895,0 0.30506,-0.0531 0.108,-0.0531 0.15348,-0.1478 0.0436,-0.0928 0.0493,-0.20274 0.006,-0.11179 0.006,-0.28422 v -1.12362 h -0.64613 v -0.51918 h 1.37373 z" />
        <path
           id="path27"
           style="font-style:normal;font-variant:normal;font-weight:600;font-stretch:normal;font-size:3.88056px;font-family:Montserrat;-inkscape-font-specification:'Montserrat Semi-Bold';text-align:center;text-anchor:middle;fill:#ffffff;fill-opacity:1;stroke-width:0.0939684"
           d="m 190.99106,215.26076 h -2.04071 v -2.82137 h 2.04071 v 0.54571 h -1.31689 v 0.48696 h 1.22215 v 0.54571 h -1.22215 v 0.69728 h 1.31689 z" />
        <path
           id="path29"
           style="font-style:normal;font-variant:normal;font-weight:600;font-stretch:normal;font-size:3.88056px;font-family:Montserrat;-inkscape-font-specification:'Montserrat Semi-Bold';text-align:center;text-anchor:middle;fill:#ffffff;fill-opacity:1;stroke-width:0.0939684"
           d="m 192.87828,215.31571 q -0.31453,0 -0.5817,-0.0928 -0.26527,-0.0928 -0.45665,-0.27664 -0.19137,-0.1838 -0.29748,-0.45854 -0.10422,-0.27475 -0.10422,-0.63476 0,-0.33538 0.10043,-0.60823 0.10042,-0.27286 0.2918,-0.46802 0.18379,-0.18759 0.45475,-0.28991 0.27285,-0.10232 0.59497,-0.10232 0.17811,0 0.32022,0.0208 0.14401,0.0189 0.26527,0.0512 0.12695,0.036 0.22927,0.0815 0.10422,0.0436 0.18191,0.0815 v 0.68402 h -0.0834 q -0.0531,-0.0455 -0.13453,-0.108 -0.0796,-0.0625 -0.1819,-0.12316 -0.10421,-0.0606 -0.22548,-0.10232 -0.12127,-0.0417 -0.25959,-0.0417 -0.15348,0 -0.2918,0.0493 -0.13832,0.0474 -0.2558,0.15916 -0.11179,0.10801 -0.1819,0.28612 -0.0682,0.17811 -0.0682,0.43201 0,0.26528 0.0739,0.44339 0.0758,0.17811 0.18948,0.28043 0.11558,0.10421 0.25769,0.14969 0.14211,0.0436 0.28043,0.0436 0.13264,0 0.26148,-0.0398 0.13075,-0.0398 0.24064,-0.10801 0.0928,-0.0549 0.17243,-0.11747 0.0796,-0.0625 0.13074,-0.10801 h 0.0758 v 0.67455 q -0.10611,0.0474 -0.20275,0.0891 -0.0966,0.0417 -0.20274,0.072 -0.13832,0.0398 -0.25959,0.0606 -0.12127,0.0208 -0.33349,0.0208 z" />
        <path
           id="path31"
           style="font-style:normal;font-variant:normal;font-weight:600;font-stretch:normal;font-size:3.88056px;font-family:Montserrat;-inkscape-font-specification:'Montserrat Semi-Bold';text-align:center;text-anchor:middle;fill:#ffffff;fill-opacity:1;stroke-width:0.0939684"
           d="m 196.62242,212.9851 h -0.88109 v 2.27566 h -0.7276 v -2.27566 h -0.88109 v -0.54571 h 2.48978 z" />
        <path
           id="path33"
           style="font-style:normal;font-variant:normal;font-weight:600;font-stretch:normal;font-size:3.88056px;font-family:Montserrat;-inkscape-font-specification:'Montserrat Semi-Bold';text-align:center;text-anchor:middle;fill:#ffffff;fill-opacity:1;stroke-width:0.0939684"
           d="m 198.58544,215.26076 h -1.65227 v -0.50023 h 0.46233 v -1.82091 h -0.46233 v -0.50023 h 1.65227 v 0.50023 h -0.46234 v 1.82091 h 0.46234 z" />
        <path
           id="path35"
           style="font-style:normal;font-variant:normal;font-weight:600;font-stretch:normal;font-size:3.88056px;font-family:Montserrat;-inkscape-font-specification:'Montserrat Semi-Bold';text-align:center;text-anchor:middle;fill:#ffffff;fill-opacity:1;stroke-width:0.0939684"
           d="m 201.74029,212.43939 -1.02888,2.82137 h -0.81477 l -1.02888,-2.82137 h 0.76361 l 0.68213,1.98197 0.68213,-1.98197 z" />
        <path
           id="path37"
           style="font-style:normal;font-variant:normal;font-weight:600;font-stretch:normal;font-size:3.88056px;font-family:Montserrat;-inkscape-font-specification:'Montserrat Semi-Bold';text-align:center;text-anchor:middle;fill:#ffffff;fill-opacity:1;stroke-width:0.0939684"
           d="m 204.18648,215.26076 h -2.04071 v -2.82137 h 2.04071 v 0.54571 h -1.31689 v 0.48696 h 1.22215 v 0.54571 h -1.22215 v 0.69728 h 1.31689 z" />
      </g>
      <g
         id="g1964">
        <path
           id="rect1405-6"
           style="opacity:1;fill:#1d1d1d;fill-opacity:1;stroke:none;stroke-width:0.958998;stroke-linejoin:miter;stroke-miterlimit:4;stroke-dasharray:none;stroke-opacity:1;paint-order:markers fill stroke"
           d="m 185.33837,194.30263 a 1.6904923,1.7060532 0 0 0 -1.69033,1.70604 1.6904923,1.7060532 0 0 0 0.85939,1.48539 h -0.28787 l -0.93814,3.5725 h 4.14392 l -0.88625,-3.5725 h -0.36951 a 1.6904923,1.7060532 0 0 0 0.85938,-1.48539 1.6904923,1.7060532 0 0 0 -1.69059,-1.70604 z" />
        <path
           d="m 192.12814,194.30263 a 1.6904923,1.7060532 0 0 0 -1.69033,1.70604 1.6904923,1.7060532 0 0 0 0.85939,1.48539 h -0.28787 l -0.93814,3.5725 h 4.14392 l -0.88625,-3.5725 h -0.36951 a 1.6904923,1.7060532 0 0 0 0.85938,-1.48539 1.6904923,1.7060532 0 0 0 -1.69059,-1.70604 z"
           style="opacity:1;fill:#1d1d1d;fill-opacity:1;stroke:none;stroke-width:0.958998;stroke-linejoin:miter;stroke-miterlimit:4;stroke-dasharray:none;stroke-opacity:1;paint-order:markers fill stroke"
           id="rect1405-6-9" />
        <path
           id="rect1405-6-9-6"
           style="opacity:1;fill:#1d1d1d;fill-opacity:1;stroke:none;stroke-width:0.958998;stroke-linejoin:miter;stroke-miterlimit:4;stroke-dasharray:none;stroke-opacity:1;paint-order:markers fill stroke"
           d="m 198.91791,194.30263 a 1.6904923,1.7060532 0 0 0 -1.69033,1.70604 1.6904923,1.7060532 0 0 0 0.85939,1.48539 h -0.28787 l -0.93814,3.5725 h 4.14392 l -0.88625,-3.5725 h -0.36951 a 1.6904923,1.7060532 0 0 0 0.85938,-1.48539 1.6904923,1.7060532 0 0 0 -1.69059,-1.70604 z" />
        <path
           d="m 185.2952,202.15367 a 1.6904923,1.7060532 0 0 0 -1.69033,1.70604 1.6904923,1.7060532 0 0 0 0.85939,1.48539 h -0.28787 l -0.93814,3.5725 h 4.14392 l -0.88625,-3.5725 h -0.36951 a 1.6904923,1.7060532 0 0 0 0.85938,-1.48539 1.6904923,1.7060532 0 0 0 -1.69059,-1.70604 z"
           style="opacity:1;fill:#1d1d1d;fill-opacity:1;stroke:none;stroke-width:0.958998;stroke-linejoin:miter;stroke-miterlimit:4;stroke-dasharray:none;stroke-opacity:1;paint-order:markers fill stroke"
           id="rect1405-6-1" />
        <path
           id="rect1405-6-9-3"
           style="opacity:1;fill:#1d1d1d;fill-opacity:1;stroke:none;stroke-width:0.958998;stroke-linejoin:miter;stroke-miterlimit:4;stroke-dasharray:none;stroke-opacity:1;paint-order:markers fill stroke"
           d="m 192.08497,202.15367 a 1.6904923,1.7060532 0 0 0 -1.69033,1.70604 1.6904923,1.7060532 0 0 0 0.85939,1.48539 h -0.28787 l -0.93814,3.5725 h 4.14392 l -0.88625,-3.5725 h -0.36951 a 1.6904923,1.7060532 0 0 0 0.85938,-1.48539 1.6904923,1.7060532 0 0 0 -1.69059,-1.70604 z" />
        <path
           d="m 198.87474,202.15367 a 1.6904923,1.7060532 0 0 0 -1.69033,1.70604 1.6904923,1.7060532 0 0 0 0.85939,1.48539 h -0.28787 l -0.93814,3.5725 h 4.14392 l -0.88625,-3.5725 h -0.36951 a 1.6904923,1.7060532 0 0 0 0.85938,-1.48539 1.6904923,1.7060532 0 0 0 -1.69059,-1.70604 z"
           style="opacity:1;fill:#1d1d1d;fill-opacity:1;stroke:none;stroke-width:0.958998;stroke-linejoin:miter;stroke-miterlimit:4;stroke-dasharray:none;stroke-opacity:1;paint-order:markers fill stroke"
           id="rect1405-6-9-6-6" />
      </g>
    </g>
  </g>
</svg>
