<?xml version="1.0" encoding="UTF-8" standalone="no"?>
<svg
   xmlns:dc="http://purl.org/dc/elements/1.1/"
   xmlns:cc="http://creativecommons.org/ns#"
   xmlns:rdf="http://www.w3.org/1999/02/22-rdf-syntax-ns#"
   xmlns:svg="http://www.w3.org/2000/svg"
   xmlns="http://www.w3.org/2000/svg"
   xmlns:sodipodi="http://sodipodi.sourceforge.net/DTD/sodipodi-0.dtd"
   xmlns:inkscape="http://www.inkscape.org/namespaces/inkscape"
   sodipodi:docname="objective.svg"
   inkscape:version="1.0 (4035a4fb49, 2020-05-01)"
   id="svg158"
   version="1.1"
   viewBox="0 0 26.327686 26.327686"
   height="26.327686mm"
   width="26.327686mm">
  <defs
     id="defs152" />
  <sodipodi:namedview
     inkscape:window-maximized="1"
     inkscape:window-y="-8"
     inkscape:window-x="1912"
     inkscape:window-height="1017"
     inkscape:window-width="1920"
     fit-margin-bottom="0"
     fit-margin-right="0"
     fit-margin-left="0"
     fit-margin-top="0"
     showborder="true"
     inkscape:snap-bbox="false"
     showgrid="false"
     inkscape:document-rotation="0"
     inkscape:current-layer="layer1"
     inkscape:document-units="mm"
     inkscape:cy="76.929991"
     inkscape:cx="96.789092"
     inkscape:zoom="3.959798"
     inkscape:pageshadow="2"
     inkscape:pageopacity="0.0"
     borderopacity="1.0"
     bordercolor="#666666"
     pagecolor="#ffffff"
     id="base" />
  <metadata
     id="metadata155">
    <rdf:RDF>
      <cc:Work
         rdf:about="">
        <dc:format>image/svg+xml</dc:format>
        <dc:type
           rdf:resource="http://purl.org/dc/dcmitype/StillImage" />
        <dc:title></dc:title>
      </cc:Work>
    </rdf:RDF>
  </metadata>
  <g
     id="layer1"
     inkscape:groupmode="layer"
     inkscape:label="Layer 1">
    <g
       transform="translate(-178.94271,-191.65219)"
       id="g1977">
      <rect
         ry="1.5388427"
         y="192.23155"
         x="179.52208"
         height="25.168686"
         width="25.168686"
         id="rect961-9-8-6"
         style="opacity:1;fill:#ff2d2d;fill-opacity:1;stroke:#1d1d1d;stroke-width:1.15873;stroke-linejoin:bevel;stroke-opacity:1;paint-order:markers fill stroke" />
      <rect
         y="210.62729"
         x="179.52208"
         height="6.7729449"
         width="25.388288"
         id="rect1032-3-6-5"
         style="opacity:1;fill:#1d1d1d;fill-opacity:1;stroke:none;stroke-width:0.939541;stroke-linejoin:miter;stroke-miterlimit:4;stroke-dasharray:none;stroke-opacity:1;paint-order:markers fill stroke" />
      <text
         id="text1051-2-0-9"
         y="215.26076"
         x="192.31174"
         style="font-style:normal;font-weight:normal;font-size:3.88056px;line-height:1.25;font-family:sans-serif;text-align:center;text-anchor:middle;fill:#000000;fill-opacity:1;stroke:none;stroke-width:0.0939684"
         xml:space="preserve"><tspan
           style="font-style:normal;font-variant:normal;font-weight:600;font-stretch:normal;font-size:3.88056px;font-family:Montserrat;-inkscape-font-specification:'Montserrat Semi-Bold';text-align:center;text-anchor:middle;fill:#ffffff;fill-opacity:1;stroke-width:0.0939684"
           y="215.26076"
           x="192.31174"
           id="tspan1049-5-1-4"
           sodipodi:role="line">OBJECTIVE</tspan></text>
      <g
         id="g1964">
        <path
           d="m 185.33837,194.30263 a 1.6904923,1.7060532 0 0 0 -1.69033,1.70604 1.6904923,1.7060532 0 0 0 0.85939,1.48539 h -0.28787 l -0.93814,3.5725 h 4.14392 l -0.88625,-3.5725 h -0.36951 a 1.6904923,1.7060532 0 0 0 0.85938,-1.48539 1.6904923,1.7060532 0 0 0 -1.69059,-1.70604 z"
           style="opacity:1;fill:#1d1d1d;fill-opacity:1;stroke:none;stroke-width:0.958998;stroke-linejoin:miter;stroke-miterlimit:4;stroke-dasharray:none;stroke-opacity:1;paint-order:markers fill stroke"
           id="rect1405-6" />
        <path
           id="rect1405-6-9"
           style="opacity:1;fill:#1d1d1d;fill-opacity:1;stroke:none;stroke-width:0.958998;stroke-linejoin:miter;stroke-miterlimit:4;stroke-dasharray:none;stroke-opacity:1;paint-order:markers fill stroke"
           d="m 192.12814,194.30263 a 1.6904923,1.7060532 0 0 0 -1.69033,1.70604 1.6904923,1.7060532 0 0 0 0.85939,1.48539 h -0.28787 l -0.93814,3.5725 h 4.14392 l -0.88625,-3.5725 h -0.36951 a 1.6904923,1.7060532 0 0 0 0.85938,-1.48539 1.6904923,1.7060532 0 0 0 -1.69059,-1.70604 z" />
        <path
           d="m 198.91791,194.30263 a 1.6904923,1.7060532 0 0 0 -1.69033,1.70604 1.6904923,1.7060532 0 0 0 0.85939,1.48539 h -0.28787 l -0.93814,3.5725 h 4.14392 l -0.88625,-3.5725 h -0.36951 a 1.6904923,1.7060532 0 0 0 0.85938,-1.48539 1.6904923,1.7060532 0 0 0 -1.69059,-1.70604 z"
           style="opacity:1;fill:#1d1d1d;fill-opacity:1;stroke:none;stroke-width:0.958998;stroke-linejoin:miter;stroke-miterlimit:4;stroke-dasharray:none;stroke-opacity:1;paint-order:markers fill stroke"
           id="rect1405-6-9-6" />
        <path
           id="rect1405-6-1"
           style="opacity:1;fill:#1d1d1d;fill-opacity:1;stroke:none;stroke-width:0.958998;stroke-linejoin:miter;stroke-miterlimit:4;stroke-dasharray:none;stroke-opacity:1;paint-order:markers fill stroke"
           d="m 185.2952,202.15367 a 1.6904923,1.7060532 0 0 0 -1.69033,1.70604 1.6904923,1.7060532 0 0 0 0.85939,1.48539 h -0.28787 l -0.93814,3.5725 h 4.14392 l -0.88625,-3.5725 h -0.36951 a 1.6904923,1.7060532 0 0 0 0.85938,-1.48539 1.6904923,1.7060532 0 0 0 -1.69059,-1.70604 z" />
        <path
           d="m 192.08497,202.15367 a 1.6904923,1.7060532 0 0 0 -1.69033,1.70604 1.6904923,1.7060532 0 0 0 0.85939,1.48539 h -0.28787 l -0.93814,3.5725 h 4.14392 l -0.88625,-3.5725 h -0.36951 a 1.6904923,1.7060532 0 0 0 0.85938,-1.48539 1.6904923,1.7060532 0 0 0 -1.69059,-1.70604 z"
           style="opacity:1;fill:#1d1d1d;fill-opacity:1;stroke:none;stroke-width:0.958998;stroke-linejoin:miter;stroke-miterlimit:4;stroke-dasharray:none;stroke-opacity:1;paint-order:markers fill stroke"
           id="rect1405-6-9-3" />
        <path
           id="rect1405-6-9-6-6"
           style="opacity:1;fill:#1d1d1d;fill-opacity:1;stroke:none;stroke-width:0.958998;stroke-linejoin:miter;stroke-miterlimit:4;stroke-dasharray:none;stroke-opacity:1;paint-order:markers fill stroke"
           d="m 198.87474,202.15367 a 1.6904923,1.7060532 0 0 0 -1.69033,1.70604 1.6904923,1.7060532 0 0 0 0.85939,1.48539 h -0.28787 l -0.93814,3.5725 h 4.14392 l -0.88625,-3.5725 h -0.36951 a 1.6904923,1.7060532 0 0 0 0.85938,-1.48539 1.6904923,1.7060532 0 0 0 -1.69059,-1.70604 z" />
      </g>
    </g>
  </g>
</svg>
