<?xml version="1.0" encoding="UTF-8" standalone="no"?>
<svg
   xmlns:dc="http://purl.org/dc/elements/1.1/"
   xmlns:cc="http://creativecommons.org/ns#"
   xmlns:rdf="http://www.w3.org/1999/02/22-rdf-syntax-ns#"
   xmlns:svg="http://www.w3.org/2000/svg"
   xmlns="http://www.w3.org/2000/svg"
   xmlns:sodipodi="http://sodipodi.sourceforge.net/DTD/sodipodi-0.dtd"
   xmlns:inkscape="http://www.inkscape.org/namespaces/inkscape"
   sodipodi:docname="optimist.svg"
   inkscape:version="1.0 (4035a4fb49, 2020-05-01)"
   id="svg158"
   version="1.1"
   viewBox="0 0 26.327686 26.327686"
   height="26.327686mm"
   width="26.327686mm">
  <defs
     id="defs152" />
  <sodipodi:namedview
     inkscape:window-maximized="1"
     inkscape:window-y="-8"
     inkscape:window-x="1912"
     inkscape:window-height="1017"
     inkscape:window-width="1920"
     fit-margin-bottom="0"
     fit-margin-right="0"
     fit-margin-left="0"
     fit-margin-top="0"
     showborder="true"
     inkscape:snap-bbox="false"
     showgrid="false"
     inkscape:document-rotation="0"
     inkscape:current-layer="layer1"
     inkscape:document-units="mm"
     inkscape:cy="76.929991"
     inkscape:cx="96.789092"
     inkscape:zoom="3.959798"
     inkscape:pageshadow="2"
     inkscape:pageopacity="0.0"
     borderopacity="1.0"
     bordercolor="#666666"
     pagecolor="#ffffff"
     id="base" />
  <metadata
     id="metadata155">
    <rdf:RDF>
      <cc:Work
         rdf:about="">
        <dc:format>image/svg+xml</dc:format>
        <dc:type
           rdf:resource="http://purl.org/dc/dcmitype/StillImage" />
        <dc:title></dc:title>
      </cc:Work>
    </rdf:RDF>
  </metadata>
  <g
     id="layer1"
     inkscape:groupmode="layer"
     inkscape:label="Layer 1">
    <g
       transform="translate(-178.94271,-223.40222)"
       id="g1941">
      <rect
         style="opacity:1;fill:#d9d9d9;fill-opacity:1;stroke:#1d1d1d;stroke-width:1.15873;stroke-linejoin:bevel;stroke-opacity:1;paint-order:markers fill stroke"
         id="rect961-9-8-6-0"
         width="25.168686"
         height="25.168686"
         x="179.52208"
         y="223.98158"
         ry="1.5388427" />
      <rect
         style="opacity:1;fill:#1d1d1d;fill-opacity:1;stroke:none;stroke-width:0.939541;stroke-linejoin:miter;stroke-miterlimit:4;stroke-dasharray:none;stroke-opacity:1;paint-order:markers fill stroke"
         id="rect1032-3-6-5-1"
         width="25.388288"
         height="6.7729449"
         x="179.52208"
         y="242.37732" />
      <text
         xml:space="preserve"
         style="font-style:normal;font-weight:normal;font-size:4.23333px;line-height:1.25;font-family:sans-serif;text-align:center;text-anchor:middle;fill:#000000;fill-opacity:1;stroke:none;stroke-width:0.0939684"
         x="192.31172"
         y="247.01079"
         id="text1051-2-0-9-9"><tspan
           sodipodi:role="line"
           id="tspan1049-5-1-4-4"
           x="192.31172"
           y="247.01079"
           style="font-style:normal;font-variant:normal;font-weight:600;font-stretch:normal;font-size:4.23333px;font-family:Montserrat;-inkscape-font-specification:'Montserrat Semi-Bold';text-align:center;text-anchor:middle;fill:#ffffff;fill-opacity:1;stroke-width:0.0939684">OPTIMIST</tspan></text>
      <g
         id="g1924">
        <path
           d="m 189.29858,230.52494 a 0.86930747,0.86930747 0 0 0 -0.8692,0.8692 0.86930747,0.86930747 0 0 0 0.8692,0.86972 0.86930747,0.86930747 0 0 0 0.8692,-0.86972 0.86930747,0.86930747 0 0 0 -0.8692,-0.8692 z m 5.55936,0 a 0.86930747,0.86930747 0 0 0 -0.8692,0.8692 0.86930747,0.86930747 0 0 0 0.8692,0.86972 0.86930747,0.86930747 0 0 0 0.86919,-0.86972 0.86930747,0.86930747 0 0 0 -0.86919,-0.8692 z m 0.3116,3.54914 a 0.53260844,0.53260844 0 0 0 -0.34571,0.13436 c -1.57727,1.39151 -3.92328,1.42297 -5.5392,0.0765 a 0.53260844,0.53260844 0 0 0 -0.74931,0.0698 0.53260844,0.53260844 0 0 0 0.0667,0.74983 c 1.00691,0.83904 2.24755,1.24803 3.48196,1.23093 v 5.2e-4 c 1.23441,-0.0172 2.46246,-0.46149 3.44527,-1.3286 a 0.53260844,0.53260844 0 0 0 0.0475,-0.75293 0.53260844,0.53260844 0 0 0 -0.40721,-0.18035 z"
           style="opacity:1;fill:#1d1d1d;fill-opacity:1;stroke:none;stroke-width:1.1;stroke-linecap:round;stroke-linejoin:miter;stroke-miterlimit:4;stroke-dasharray:none;stroke-opacity:1;paint-order:markers fill stroke"
           id="path1645-6" />
        <circle
           r="6.9155993"
           cy="233.02563"
           cx="192.1646"
           id="path1737"
           style="opacity:1;fill:none;fill-opacity:0;stroke:#1d1d1d;stroke-width:0.799999;stroke-linecap:round;stroke-linejoin:miter;stroke-miterlimit:4;stroke-dasharray:none;stroke-opacity:1;paint-order:markers fill stroke" />
      </g>
    </g>
  </g>
</svg>
