<?xml version="1.0" encoding="UTF-8" standalone="no"?>
<svg
   xmlns:dc="http://purl.org/dc/elements/1.1/"
   xmlns:cc="http://creativecommons.org/ns#"
   xmlns:rdf="http://www.w3.org/1999/02/22-rdf-syntax-ns#"
   xmlns:svg="http://www.w3.org/2000/svg"
   xmlns="http://www.w3.org/2000/svg"
   xmlns:sodipodi="http://sodipodi.sourceforge.net/DTD/sodipodi-0.dtd"
   xmlns:inkscape="http://www.inkscape.org/namespaces/inkscape"
   sodipodi:docname="pessimist.svg"
   inkscape:version="1.0 (4035a4fb49, 2020-05-01)"
   id="svg158"
   version="1.1"
   viewBox="0 0 26.327686 26.327686"
   height="26.327686mm"
   width="26.327686mm">
  <defs
     id="defs152" />
  <sodipodi:namedview
     inkscape:window-maximized="1"
     inkscape:window-y="-8"
     inkscape:window-x="1912"
     inkscape:window-height="1017"
     inkscape:window-width="1920"
     fit-margin-bottom="0"
     fit-margin-right="0"
     fit-margin-left="0"
     fit-margin-top="0"
     showborder="true"
     inkscape:snap-bbox="false"
     showgrid="false"
     inkscape:document-rotation="0"
     inkscape:current-layer="layer1"
     inkscape:document-units="mm"
     inkscape:cy="76.929991"
     inkscape:cx="96.789092"
     inkscape:zoom="3.959798"
     inkscape:pageshadow="2"
     inkscape:pageopacity="0.0"
     borderopacity="1.0"
     bordercolor="#666666"
     pagecolor="#ffffff"
     id="base" />
  <metadata
     id="metadata155">
    <rdf:RDF>
      <cc:Work
         rdf:about="">
        <dc:format>image/svg+xml</dc:format>
        <dc:type
           rdf:resource="http://purl.org/dc/dcmitype/StillImage" />
        <dc:title></dc:title>
      </cc:Work>
    </rdf:RDF>
  </metadata>
  <g
     id="layer1"
     inkscape:groupmode="layer"
     inkscape:label="Layer 1">
    <g
       transform="translate(-4.3175527,-223.40208)"
       id="g1948">
      <rect
         ry="1.5388427"
         y="223.98158"
         x="4.8970528"
         height="25.168686"
         width="25.168686"
         id="rect961-6-7-3"
         style="opacity:1;fill:#474747;fill-opacity:1;stroke:#1d1d1d;stroke-width:1.159;stroke-linejoin:bevel;stroke-miterlimit:4;stroke-dasharray:none;stroke-opacity:1;paint-order:markers fill stroke" />
      <rect
         y="242.09384"
         x="4.6774483"
         height="6.7729449"
         width="25.388288"
         id="rect1032-0-4-9"
         style="opacity:1;fill:#1d1d1d;fill-opacity:1;stroke:none;stroke-width:0.939541;stroke-linejoin:miter;stroke-miterlimit:4;stroke-dasharray:none;stroke-opacity:1;paint-order:markers fill stroke" />
      <text
         id="text1051-3-1-9"
         y="246.73561"
         x="17.201628"
         style="font-style:normal;font-weight:normal;font-size:3.88056px;line-height:1.25;font-family:sans-serif;text-align:center;text-anchor:middle;fill:#000000;fill-opacity:1;stroke:none;stroke-width:0.0939684"
         xml:space="preserve"><tspan
           style="font-style:normal;font-variant:normal;font-weight:600;font-stretch:normal;font-size:3.88056px;font-family:Montserrat;-inkscape-font-specification:'Montserrat Semi-Bold';text-align:center;text-anchor:middle;fill:#ffffff;fill-opacity:1;stroke-width:0.0939684"
           y="246.73561"
           x="17.201628"
           id="tspan1049-9-3-2"
           sodipodi:role="line">PESSIMIST</tspan></text>
      <path
         id="path1643"
         style="opacity:1;fill:#1d1d1d;fill-opacity:1;stroke:none;stroke-width:1.1;stroke-linecap:round;stroke-linejoin:miter;stroke-miterlimit:4;stroke-dasharray:none;stroke-opacity:1;paint-order:markers fill stroke"
         d="m 16.956071,226.12418 a 6.898065,6.898065 0 0 0 -6.854879,6.89829 6.898065,6.898065 0 0 0 6.898287,6.89777 6.898065,6.898065 0 0 0 6.898287,-6.89777 6.898065,6.898065 0 0 0 -6.898287,-6.89829 6.898065,6.898065 0 0 0 -0.04341,0 z m -2.811715,4.40076 a 0.86930745,0.86930745 0 0 1 0.869198,0.8692 0.86930745,0.86930745 0 0 1 -0.869198,0.86972 0.86930745,0.86930745 0 0 1 -0.869197,-0.86972 0.86930745,0.86930745 0 0 1 0.869197,-0.8692 z m 5.558834,0 a 0.86930745,0.86930745 0 0 1 0.869198,0.8692 0.86930745,0.86930745 0 0 1 -0.869198,0.86972 0.86930745,0.86930745 0 0 1 -0.869197,-0.86972 0.86930745,0.86930745 0 0 1 0.869197,-0.8692 z m -2.810681,3.53777 c 1.234319,-0.0226 2.476331,0.381 3.486609,1.21595 a 0.53260841,0.53260841 0 0 1 0.07131,0.75189 0.53260841,0.53260841 0 0 1 -0.750341,0.0698 c -1.621338,-1.33994 -3.967041,-1.29562 -5.53868,0.10232 a 0.53260841,0.53260841 0 0 1 -0.751892,-0.0455 0.53260841,0.53260841 0 0 1 0.04237,-0.75189 c 0.97932,-0.87108 2.2063,-1.31986 3.440617,-1.34256 z" />
    </g>
  </g>
</svg>
