<?xml version="1.0" encoding="UTF-8" standalone="no"?>
<svg
   xmlns:dc="http://purl.org/dc/elements/1.1/"
   xmlns:cc="http://creativecommons.org/ns#"
   xmlns:rdf="http://www.w3.org/1999/02/22-rdf-syntax-ns#"
   xmlns:svg="http://www.w3.org/2000/svg"
   xmlns="http://www.w3.org/2000/svg"
   xmlns:sodipodi="http://sodipodi.sourceforge.net/DTD/sodipodi-0.dtd"
   xmlns:inkscape="http://www.inkscape.org/namespaces/inkscape"
   sodipodi:docname="relative.svg"
   inkscape:version="1.0 (4035a4fb49, 2020-05-01)"
   id="svg158"
   version="1.1"
   viewBox="0 0 26.327686 26.327686"
   height="26.327686mm"
   width="26.327686mm">
  <defs
     id="defs152" />
  <sodipodi:namedview
     inkscape:window-maximized="1"
     inkscape:window-y="-8"
     inkscape:window-x="1912"
     inkscape:window-height="1017"
     inkscape:window-width="1920"
     fit-margin-bottom="0"
     fit-margin-right="0"
     fit-margin-left="0"
     fit-margin-top="0"
     showborder="true"
     inkscape:snap-bbox="false"
     showgrid="false"
     inkscape:document-rotation="0"
     inkscape:current-layer="layer1"
     inkscape:document-units="mm"
     inkscape:cy="76.929991"
     inkscape:cx="96.789092"
     inkscape:zoom="3.959798"
     inkscape:pageshadow="2"
     inkscape:pageopacity="0.0"
     borderopacity="1.0"
     bordercolor="#666666"
     pagecolor="#ffffff"
     id="base" />
  <metadata
     id="metadata155">
    <rdf:RDF>
      <cc:Work
         rdf:about="">
        <dc:format>image/svg+xml</dc:format>
        <dc:type
           rdf:resource="http://purl.org/dc/dcmitype/StillImage" />
        <dc:title></dc:title>
      </cc:Work>
    </rdf:RDF>
  </metadata>
  <g
     id="layer1"
     inkscape:groupmode="layer"
     inkscape:label="Layer 1">
    <g
       transform="translate(-4.3175532,-159.90202)"
       id="g2008">
      <rect
         ry="1.5388427"
         y="160.48152"
         x="4.8970532"
         height="25.168686"
         width="25.168686"
         id="rect961-6"
         style="opacity:1;fill:#39b900;fill-opacity:1;stroke:#1d1d1d;stroke-width:1.159;stroke-linejoin:bevel;stroke-miterlimit:4;stroke-dasharray:none;stroke-opacity:1;paint-order:markers fill stroke" />
      <rect
         y="178.59378"
         x="4.6774487"
         height="6.7729449"
         width="25.388288"
         id="rect1032-0"
         style="opacity:1;fill:#1d1d1d;fill-opacity:1;stroke:none;stroke-width:0.939541;stroke-linejoin:miter;stroke-miterlimit:4;stroke-dasharray:none;stroke-opacity:1;paint-order:markers fill stroke" />
      <text
         id="text1051-3"
         y="183.23555"
         x="17.155821"
         style="font-style:normal;font-weight:normal;font-size:3.88056px;line-height:1.25;font-family:sans-serif;text-align:center;text-anchor:middle;fill:#000000;fill-opacity:1;stroke:none;stroke-width:0.0939684"
         xml:space="preserve"><tspan
           style="font-style:normal;font-variant:normal;font-weight:600;font-stretch:normal;font-size:3.88056px;font-family:Montserrat;-inkscape-font-specification:'Montserrat Semi-Bold';text-align:center;text-anchor:middle;fill:#ffffff;fill-opacity:1;stroke-width:0.0939684"
           y="183.23555"
           x="17.155821"
           id="tspan1049-9"
           sodipodi:role="line">RELATIVE</tspan></text>
      <path
         id="path1819"
         style="color:#000000;font-style:normal;font-variant:normal;font-weight:normal;font-stretch:normal;font-size:medium;line-height:normal;font-family:sans-serif;font-variant-ligatures:normal;font-variant-position:normal;font-variant-caps:normal;font-variant-numeric:normal;font-variant-alternates:normal;font-variant-east-asian:normal;font-feature-settings:normal;font-variation-settings:normal;text-indent:0;text-align:start;text-decoration:none;text-decoration-line:none;text-decoration-style:solid;text-decoration-color:#000000;letter-spacing:normal;word-spacing:normal;text-transform:none;writing-mode:lr-tb;direction:ltr;text-orientation:mixed;dominant-baseline:auto;baseline-shift:baseline;text-anchor:start;white-space:normal;shape-padding:0;shape-margin:0;inline-size:0;clip-rule:nonzero;display:inline;overflow:visible;visibility:visible;opacity:1;isolation:auto;mix-blend-mode:normal;color-interpolation:sRGB;color-interpolation-filters:linearRGB;solid-color:#000000;solid-opacity:1;vector-effect:none;fill:#1d1d1d;fill-opacity:1;fill-rule:nonzero;stroke:none;stroke-width:0.799996;stroke-linecap:round;stroke-linejoin:miter;stroke-miterlimit:4;stroke-dasharray:none;stroke-dashoffset:0;stroke-opacity:1;paint-order:markers fill stroke;color-rendering:auto;image-rendering:auto;shape-rendering:auto;text-rendering:auto;enable-background:accumulate;stop-color:#000000;stop-opacity:1"
         d="m 16.525505,165.2312 v 0.0845 c -2.918805,0.2255 -5.632713,1.84988 -7.344114,4.53411 l -0.2434606,0.38169 0.2434606,0.3823 c 1.847326,2.8969 4.849155,4.61598 8.023297,4.61007 v 0.001 c 0.0058,3e-5 0.01164,-6.4e-4 0.01743,-6.1e-4 0.0058,-3e-5 0.01164,6.4e-4 0.01743,6.1e-4 v -0.001 c 3.174141,0.006 6.17597,-1.71317 8.023296,-4.61007 l 0.242916,-0.3823 -0.242916,-0.38169 c -1.711401,-2.68423 -4.425854,-4.30861 -7.344658,-4.53411 v -0.0845 h -0.585502 -0.0049 c -0.03358,0 -0.06947,8.8e-4 -0.105664,0.001 -0.03621,-3.4e-4 -0.0726,-0.001 -0.106206,-0.001 h -0.0044 z m -1.871976,1.75834 a 3.8494609,4.2956833 0 0 0 -1.190068,3.10519 3.8494609,4.2956833 0 0 0 1.635594,3.51362 c -1.815822,-0.52247 -3.451217,-1.70796 -4.643717,-3.37869 1.093655,-1.53218 2.55987,-2.65997 4.198191,-3.24012 z m 5.412771,0.10338 c 1.526912,0.60552 2.89063,1.69106 3.922595,3.1368 -1.129578,1.58257 -2.65604,2.73256 -4.35723,3.29361 a 3.8494609,4.2956833 0 0 0 1.531022,-3.42854 3.8494609,4.2956833 0 0 0 -1.096387,-3.00187 z" />
    </g>
  </g>
</svg>
