<?xml version="1.0" encoding="UTF-8" standalone="no"?>
<svg
   xmlns:dc="http://purl.org/dc/elements/1.1/"
   xmlns:cc="http://creativecommons.org/ns#"
   xmlns:rdf="http://www.w3.org/1999/02/22-rdf-syntax-ns#"
   xmlns:svg="http://www.w3.org/2000/svg"
   xmlns="http://www.w3.org/2000/svg"
   xmlns:sodipodi="http://sodipodi.sourceforge.net/DTD/sodipodi-0.dtd"
   xmlns:inkscape="http://www.inkscape.org/namespaces/inkscape"
   sodipodi:docname="skeptic.svg"
   inkscape:version="1.0 (4035a4fb49, 2020-05-01)"
   id="svg158"
   version="1.1"
   viewBox="0 0 26.327686 26.327686"
   height="26.327686mm"
   width="26.327686mm">
  <defs
     id="defs152" />
  <sodipodi:namedview
     inkscape:window-maximized="0"
     inkscape:window-y="0"
     inkscape:window-x="198"
     inkscape:window-height="1040"
     inkscape:window-width="1274"
     fit-margin-bottom="0"
     fit-margin-right="0"
     fit-margin-left="0"
     fit-margin-top="0"
     showborder="true"
     inkscape:snap-bbox="false"
     showgrid="false"
     inkscape:document-rotation="0"
     inkscape:current-layer="layer1"
     inkscape:document-units="mm"
     inkscape:cy="76.929991"
     inkscape:cx="96.789092"
     inkscape:zoom="3.959798"
     inkscape:pageshadow="2"
     inkscape:pageopacity="0.0"
     borderopacity="1.0"
     bordercolor="#666666"
     pagecolor="#ffffff"
     id="base" />
  <metadata
     id="metadata155">
    <rdf:RDF>
      <cc:Work
         rdf:about="">
        <dc:format>image/svg+xml</dc:format>
        <dc:type
           rdf:resource="http://purl.org/dc/dcmitype/StillImage" />
        <dc:title />
      </cc:Work>
    </rdf:RDF>
  </metadata>
  <g
     id="layer1"
     inkscape:groupmode="layer"
     inkscape:label="Layer 1">
    <g
       transform="translate(-4.3175537,-128.15199)"
       id="g2022">
      <rect
         style="opacity:1;fill:#2c4162;fill-opacity:1;stroke:#1d1d1d;stroke-width:1.159;stroke-linejoin:bevel;stroke-miterlimit:4;stroke-dasharray:none;stroke-opacity:1;paint-order:markers fill stroke"
         id="rect961"
         width="25.168686"
         height="25.168686"
         x="4.8970537"
         y="128.73149"
         ry="1.5388427" />
      <rect
         style="opacity:1;fill:#1d1d1d;fill-opacity:1;stroke:none;stroke-width:0.93954;stroke-linejoin:miter;stroke-miterlimit:4;stroke-dasharray:none;stroke-opacity:1;paint-order:markers fill stroke"
         id="rect1032"
         width="25.388288"
         height="6.7729449"
         x="4.6774507"
         y="146.84375" />
      <g
         style="font-style:normal;font-weight:normal;font-size:4.23333px;line-height:1.25;font-family:sans-serif;fill:#000000;fill-opacity:1;stroke:none;stroke-width:0.0939684"
         id="text1051"
         aria-label="SKEPTIC">
        <path
           id="path15"
           style="font-style:normal;font-variant:normal;font-weight:bold;font-stretch:normal;font-size:4.23333px;font-family:sans-serif;-inkscape-font-specification:'sans-serif Bold';text-align:center;text-anchor:middle;fill:#ffffff;fill-opacity:1;stroke-width:0.0939684"
           d="m 9.7433902,150.78002 q 0,0.45476 -0.3865394,0.74001 -0.3844724,0.28319 -1.0459301,0.28319 -0.3824053,0 -0.667659,-0.0662 -0.2831866,-0.0682 -0.5312333,-0.17156 v -0.73794 h 0.086816 q 0.2459796,0.19637 0.5498367,0.30179 0.3059243,0.10542 0.5870438,0.10542 0.072347,0 0.1901691,-0.0124 0.1178222,-0.0124 0.1922362,-0.0413 0.09095,-0.0372 0.148828,-0.093 0.059945,-0.0558 0.059945,-0.16537 0,-0.10128 -0.086816,-0.17363 -0.084749,-0.0744 -0.2501137,-0.11369 -0.1736327,-0.0413 -0.3679359,-0.0765 -0.1922362,-0.0372 -0.3617348,-0.093 -0.3886064,-0.12609 -0.560172,-0.34106 -0.1694986,-0.21704 -0.1694986,-0.53744 0,-0.42994 0.3844724,-0.70073 0.3865394,-0.27285 0.9921866,-0.27285 0.3038572,0 0.5994461,0.0599 0.297656,0.0579 0.5146969,0.14677 v 0.709 h -0.084749 q -0.186035,-0.14883 -0.4568193,-0.24805 -0.2687172,-0.10129 -0.5498368,-0.10129 -0.099219,0 -0.1984373,0.0145 -0.097152,0.0124 -0.188102,0.0496 -0.080615,0.031 -0.1384928,0.0951 -0.057877,0.062 -0.057877,0.14262 0,0.12196 0.093017,0.18811 0.093018,0.0641 0.3513994,0.11782 0.1694986,0.0351 0.3245277,0.0682 0.1570963,0.0331 0.3369301,0.0909 0.3534665,0.11576 0.520898,0.31626 0.1694986,0.19844 0.1694986,0.51676 z" />
        <path
           id="path17"
           style="font-style:normal;font-variant:normal;font-weight:bold;font-stretch:normal;font-size:4.23333px;font-family:sans-serif;-inkscape-font-specification:'sans-serif Bold';text-align:center;text-anchor:middle;fill:#ffffff;fill-opacity:1;stroke-width:0.0939684"
           d="m 13.1623,151.74741 h -0.973583 l -0.91984,-1.23197 -0.186035,0.22531 v 1.00666 h -0.793749 v -3.07785 h 0.793749 v 1.3932 l 1.099674,-1.3932 h 0.919839 l -1.203026,1.4242 z" />
        <path
           id="path19"
           style="font-style:normal;font-variant:normal;font-weight:bold;font-stretch:normal;font-size:4.23333px;font-family:sans-serif;-inkscape-font-specification:'sans-serif Bold';text-align:center;text-anchor:middle;fill:#ffffff;fill-opacity:1;stroke-width:0.0939684"
           d="M 15.781259,151.74741 H 13.55504 v -3.07785 h 2.226219 v 0.59531 h -1.436603 v 0.53124 h 1.33325 v 0.59531 h -1.33325 v 0.76067 h 1.436603 z" />
        <path
           id="path21"
           style="font-style:normal;font-variant:normal;font-weight:bold;font-stretch:normal;font-size:4.23333px;font-family:sans-serif;-inkscape-font-specification:'sans-serif Bold';text-align:center;text-anchor:middle;fill:#ffffff;fill-opacity:1;stroke-width:0.0939684"
           d="m 18.98933,149.64108 q 0,0.2067 -0.07235,0.40514 -0.07235,0.19637 -0.206706,0.33073 -0.183968,0.1819 -0.411344,0.27492 -0.225309,0.093 -0.562239,0.093 h -0.494026 v 1.00253 h -0.79375 v -3.07785 h 1.306379 q 0.293522,0 0.494027,0.0517 0.202571,0.0496 0.3576,0.15089 0.186035,0.12196 0.283187,0.31213 0.09922,0.19017 0.09922,0.45682 z m -0.820621,0.0186 q 0,-0.13022 -0.07028,-0.22324 -0.07028,-0.0951 -0.163298,-0.13229 -0.124023,-0.0496 -0.241845,-0.0537 -0.117822,-0.006 -0.314193,-0.006 h -0.136425 v 0.92191 h 0.227376 q 0.202571,0 0.332796,-0.0248 0.132291,-0.0248 0.221175,-0.0992 0.07648,-0.0661 0.109554,-0.1571 0.03514,-0.093 0.03514,-0.22531 z" />
        <path
           id="path23"
           style="font-style:normal;font-variant:normal;font-weight:bold;font-stretch:normal;font-size:4.23333px;font-family:sans-serif;-inkscape-font-specification:'sans-serif Bold';text-align:center;text-anchor:middle;fill:#ffffff;fill-opacity:1;stroke-width:0.0939684"
           d="M 21.957621,149.26487 H 20.99644 v 2.48254 h -0.793749 v -2.48254 H 19.24151 v -0.59531 h 2.716111 z" />
        <path
           id="path25"
           style="font-style:normal;font-variant:normal;font-weight:bold;font-stretch:normal;font-size:4.23333px;font-family:sans-serif;-inkscape-font-specification:'sans-serif Bold';text-align:center;text-anchor:middle;fill:#ffffff;fill-opacity:1;stroke-width:0.0939684"
           d="m 24.099091,151.74741 h -1.802473 v -0.54571 h 0.504362 v -1.98644 h -0.504362 v -0.5457 h 1.802473 v 0.5457 h -0.504362 v 1.98644 h 0.504362 z" />
        <path
           id="path27"
           style="font-style:normal;font-variant:normal;font-weight:bold;font-stretch:normal;font-size:4.23333px;font-family:sans-serif;-inkscape-font-specification:'sans-serif Bold';text-align:center;text-anchor:middle;fill:#ffffff;fill-opacity:1;stroke-width:0.0939684"
           d="m 26.141341,151.80735 q -0.343131,0 -0.634586,-0.10129 -0.289388,-0.10128 -0.49816,-0.30179 -0.208773,-0.2005 -0.324528,-0.50022 -0.113688,-0.29973 -0.113688,-0.69247 0,-0.36587 0.109554,-0.66352 0.109554,-0.29766 0.318326,-0.51056 0.200505,-0.20464 0.496094,-0.31626 0.297656,-0.11162 0.649055,-0.11162 0.194303,0 0.349332,0.0227 0.157097,0.0207 0.289388,0.0558 0.138493,0.0393 0.250114,0.0889 0.113688,0.0475 0.198437,0.0889 v 0.74621 h -0.09095 q -0.05788,-0.0496 -0.146761,-0.11782 -0.08682,-0.0682 -0.198437,-0.13436 -0.113688,-0.0661 -0.24598,-0.11162 -0.132292,-0.0455 -0.283187,-0.0455 -0.167431,0 -0.318326,0.0537 -0.150895,0.0517 -0.279053,0.17364 -0.121956,0.11782 -0.198437,0.31212 -0.07441,0.19431 -0.07441,0.47129 0,0.28939 0.08062,0.48369 0.08268,0.19431 0.206706,0.30593 0.12609,0.11368 0.281119,0.16329 0.155029,0.0476 0.305924,0.0476 0.144694,0 0.285254,-0.0434 0.142627,-0.0434 0.262516,-0.11782 0.101286,-0.0599 0.188102,-0.12816 0.08682,-0.0682 0.142627,-0.11782 h 0.08268 v 0.73587 q -0.115755,0.0517 -0.221175,0.0971 -0.105419,0.0455 -0.221175,0.0786 -0.150895,0.0434 -0.283186,0.0661 -0.132292,0.0227 -0.363802,0.0227 z" />
      </g>
      <g
         id="g1641"
         transform="matrix(0.9233486,0,0,0.9233486,1.2052833,10.577668)"
         style="fill:#1d1d1d;fill-opacity:1;stroke:none;stroke-width:1.08301;stroke-opacity:1">
        <path
           sodipodi:nodetypes="ccsccccscscccccssc"
           id="path1346"
           style="font-style:normal;font-weight:normal;font-size:21.127px;line-height:1.25;font-family:sans-serif;fill:#1d1d1d;fill-opacity:1;stroke:none;stroke-width:0.286548;stroke-opacity:1"
           d="m 16.468044,153.25448 h -1.970341 v -1.58866 c 0,-0.6946 0.09628,-1.26541 0.288846,-1.71244 3.566501,-4.14385 1.44593,-7.24397 -2.867825,-5.13733 v -1.93939 c 0.646464,-0.39201 1.299805,-0.68429 1.960024,-0.87685 0.667096,-0.19257 1.354824,-0.28885 2.063184,-0.28885 1.265419,0 2.279818,0.33355 3.043196,1.00065 0.770255,0.66709 1.155383,1.54738 1.155383,2.64087 0,0.52267 -0.123791,1.02128 -0.371373,1.49581 -0.247583,0.46765 -0.680851,0.9972 -1.299806,1.58865 l -0.907801,0.88717 c -0.323232,0.32323 -0.553621,0.57769 -0.691167,0.76338 -0.130668,0.17881 -0.223511,0.35418 -0.278529,0.52611 -0.04127,0.14442 -0.07221,0.31979 -0.09284,0.52611 -0.02063,0.20632 -0.03095,0.48829 -0.03095,0.84591 z"
           transform="scale(1.0836824,0.92277959)" />
        <circle
           r="1.0394346"
           cy="143.9617"
           cx="16.961681"
           id="path1349"
           style="opacity:1;fill:#1d1d1d;fill-opacity:1;stroke:none;stroke-width:1.03861;stroke-linejoin:miter;stroke-miterlimit:4;stroke-dasharray:none;stroke-opacity:1;paint-order:markers fill stroke" />
      </g>
    </g>
  </g>
</svg>
