<?xml version="1.0" encoding="UTF-8" standalone="no"?>
<svg
   xmlns:dc="http://purl.org/dc/elements/1.1/"
   xmlns:cc="http://creativecommons.org/ns#"
   xmlns:rdf="http://www.w3.org/1999/02/22-rdf-syntax-ns#"
   xmlns:svg="http://www.w3.org/2000/svg"
   xmlns="http://www.w3.org/2000/svg"
   xmlns:sodipodi="http://sodipodi.sourceforge.net/DTD/sodipodi-0.dtd"
   xmlns:inkscape="http://www.inkscape.org/namespaces/inkscape"
   width="26.327686mm"
   height="26.327686mm"
   viewBox="0 0 26.327686 26.327686"
   version="1.1"
   id="svg158"
   inkscape:version="1.0 (4035a4fb49, 2020-05-01)"
   sodipodi:docname="universal.svg">
  <defs
     id="defs152" />
  <sodipodi:namedview
     id="base"
     pagecolor="#ffffff"
     bordercolor="#666666"
     borderopacity="1.0"
     inkscape:pageopacity="0.0"
     inkscape:pageshadow="2"
     inkscape:zoom="3.959798"
     inkscape:cx="96.789092"
     inkscape:cy="76.929991"
     inkscape:document-units="mm"
     inkscape:current-layer="layer1"
     inkscape:document-rotation="0"
     showgrid="false"
     inkscape:snap-bbox="false"
     showborder="true"
     fit-margin-top="0"
     fit-margin-left="0"
     fit-margin-right="0"
     fit-margin-bottom="0"
     inkscape:window-width="1920"
     inkscape:window-height="1017"
     inkscape:window-x="-8"
     inkscape:window-y="-8"
     inkscape:window-maximized="1" />
  <metadata
     id="metadata155">
    <rdf:RDF>
      <cc:Work
         rdf:about="">
        <dc:format>image/svg+xml</dc:format>
        <dc:type
           rdf:resource="http://purl.org/dc/dcmitype/StillImage" />
        <dc:title />
      </cc:Work>
    </rdf:RDF>
  </metadata>
  <g
     inkscape:label="Layer 1"
     inkscape:groupmode="layer"
     id="layer1">
    <g
       id="g2001"
       transform="translate(-178.94258,-159.90202)">
      <path
         d="m 181.06092,160.48152 h 22.091 c 0.85252,0 1.53885,0.68633 1.53885,1.53884 v 22.091 c 0,0.85252 -0.68633,1.53885 -1.53885,1.53885 h -22.091 c -0.85252,0 -1.53884,-0.68633 -1.53884,-1.53885 v -22.091 c 0,-0.85251 0.68632,-1.53884 1.53884,-1.53884 z"
         style="opacity:1;fill:#f59900;fill-opacity:1;stroke:#1d1d1d;stroke-width:1.159;stroke-linejoin:bevel;stroke-miterlimit:4;stroke-dasharray:none;stroke-opacity:1;paint-order:markers fill stroke"
         id="rect961-9-8" />
      <path
         d="m 179.52208,178.87726 h 25.38829 v 6.77294 h -25.38829 z"
         style="opacity:1;fill:#1d1d1d;fill-opacity:1;stroke:none;stroke-width:0.939541;stroke-linejoin:miter;stroke-miterlimit:4;stroke-dasharray:none;stroke-opacity:1;paint-order:markers fill stroke"
         id="rect1032-3-6" />
      <g
         style="font-style:normal;font-weight:normal;font-size:3.88056px;line-height:1.25;font-family:sans-serif;text-align:center;text-anchor:middle;fill:#000000;fill-opacity:1;stroke:none;stroke-width:0.0939684"
         id="text1051-2-0"
         aria-label="UNIVERSAL">
        <path
           id="path21"
           style="font-style:normal;font-variant:normal;font-weight:600;font-stretch:normal;font-size:3.88056px;font-family:Montserrat;-inkscape-font-specification:'Montserrat Semi-Bold';text-align:center;text-anchor:middle;fill:#ffffff;fill-opacity:1;stroke-width:0.0939684"
           d="m 182.40949,182.48943 q 0,0.52296 -0.31833,0.8015 -0.31833,0.27854 -0.93793,0.27854 -0.6196,0 -0.93793,-0.27854 -0.31643,-0.27854 -0.31643,-0.79961 v -1.80196 h 0.7314 v 1.76028 q 0,0.29369 0.12316,0.4377 0.12316,0.144 0.3998,0.144 0.27285,0 0.39791,-0.13832 0.12695,-0.13832 0.12695,-0.44338 v -1.76028 h 0.7314 z" />
        <path
           id="path23"
           style="font-style:normal;font-variant:normal;font-weight:600;font-stretch:normal;font-size:3.88056px;font-family:Montserrat;-inkscape-font-specification:'Montserrat Semi-Bold';text-align:center;text-anchor:middle;fill:#ffffff;fill-opacity:1;stroke-width:0.0939684"
           d="m 185.65718,183.51073 h -0.70107 l -1.19752,-1.93649 v 1.93649 h -0.66697 v -2.82137 h 0.86971 l 1.02888,1.61627 v -1.61627 h 0.66697 z" />
        <path
           id="path25"
           style="font-style:normal;font-variant:normal;font-weight:600;font-stretch:normal;font-size:3.88056px;font-family:Montserrat;-inkscape-font-specification:'Montserrat Semi-Bold';text-align:center;text-anchor:middle;fill:#ffffff;fill-opacity:1;stroke-width:0.0939684"
           d="m 187.90632,183.51073 h -1.65227 v -0.50023 h 0.46233 v -1.82091 h -0.46233 v -0.50023 h 1.65227 v 0.50023 h -0.46234 v 1.82091 h 0.46234 z" />
        <path
           id="path27"
           style="font-style:normal;font-variant:normal;font-weight:600;font-stretch:normal;font-size:3.88056px;font-family:Montserrat;-inkscape-font-specification:'Montserrat Semi-Bold';text-align:center;text-anchor:middle;fill:#ffffff;fill-opacity:1;stroke-width:0.0939684"
           d="m 191.06117,180.68936 -1.02888,2.82137 h -0.81477 l -1.02888,-2.82137 h 0.76361 l 0.68213,1.98197 0.68213,-1.98197 z" />
        <path
           id="path29"
           style="font-style:normal;font-variant:normal;font-weight:600;font-stretch:normal;font-size:3.88056px;font-family:Montserrat;-inkscape-font-specification:'Montserrat Semi-Bold';text-align:center;text-anchor:middle;fill:#ffffff;fill-opacity:1;stroke-width:0.0939684"
           d="m 193.50736,183.51073 h -2.04071 v -2.82137 h 2.04071 v 0.54571 h -1.31689 v 0.48696 h 1.22215 v 0.54571 h -1.22215 v 0.69728 h 1.31689 z" />
        <path
           id="path31"
           style="font-style:normal;font-variant:normal;font-weight:600;font-stretch:normal;font-size:3.88056px;font-family:Montserrat;-inkscape-font-specification:'Montserrat Semi-Bold';text-align:center;text-anchor:middle;fill:#ffffff;fill-opacity:1;stroke-width:0.0939684"
           d="m 195.70154,181.55339 q 0,-0.10611 -0.0436,-0.1819 -0.0436,-0.0758 -0.14969,-0.11937 -0.0739,-0.0303 -0.17243,-0.036 -0.0985,-0.008 -0.22927,-0.008 h -0.26337 v 0.75982 h 0.22358 q 0.17432,0 0.2918,-0.0171 0.11748,-0.0171 0.19706,-0.0777 0.0758,-0.0587 0.1099,-0.12885 0.036,-0.072 0.036,-0.19138 z m 1.13499,1.95734 h -0.88866 l -0.76929,-1.03457 h -0.33538 v 1.03457 h -0.72382 v -2.82137 h 1.22025 q 0.25012,0 0.43013,0.0284 0.18,0.0284 0.33727,0.12317 0.15916,0.0947 0.25201,0.24632 0.0947,0.14969 0.0947,0.37707 0,0.31264 -0.1459,0.5097 -0.14401,0.19706 -0.41307,0.3278 z" />
        <path
           id="path33"
           style="font-style:normal;font-variant:normal;font-weight:600;font-stretch:normal;font-size:3.88056px;font-family:Montserrat;-inkscape-font-specification:'Montserrat Semi-Bold';text-align:center;text-anchor:middle;fill:#ffffff;fill-opacity:1;stroke-width:0.0939684"
           d="m 199.41725,182.62396 q 0,0.41686 -0.35432,0.67834 -0.35244,0.25959 -0.95878,0.25959 -0.35053,0 -0.61202,-0.0606 -0.25959,-0.0625 -0.48696,-0.15727 v -0.67644 h 0.0796 q 0.22548,0.18001 0.50402,0.27664 0.28043,0.0966 0.53812,0.0966 0.0663,0 0.17432,-0.0114 0.10801,-0.0114 0.17622,-0.0379 0.0834,-0.0341 0.13643,-0.0853 0.055,-0.0512 0.055,-0.15158 0,-0.0929 -0.0796,-0.15916 -0.0777,-0.0682 -0.22927,-0.10422 -0.15916,-0.0379 -0.33727,-0.0701 -0.17622,-0.0341 -0.33159,-0.0853 -0.35623,-0.11559 -0.5135,-0.31264 -0.15537,-0.19896 -0.15537,-0.49265 0,-0.39412 0.35243,-0.64234 0.35433,-0.25012 0.90951,-0.25012 0.27854,0 0.54949,0.0549 0.27286,0.0531 0.47181,0.13453 v 0.64992 h -0.0777 q -0.17053,-0.13642 -0.41875,-0.22738 -0.24632,-0.0928 -0.50402,-0.0928 -0.091,0 -0.1819,0.0133 -0.089,0.0114 -0.17242,0.0455 -0.0739,0.0284 -0.12696,0.0872 -0.0531,0.0568 -0.0531,0.13074 0,0.11179 0.0853,0.17243 0.0853,0.0587 0.32212,0.108 0.15538,0.0322 0.29749,0.0625 0.144,0.0303 0.30885,0.0834 0.32401,0.10611 0.47749,0.28991 0.15537,0.1819 0.15537,0.4737 z" />
        <path
           id="path35"
           style="font-style:normal;font-variant:normal;font-weight:600;font-stretch:normal;font-size:3.88056px;font-family:Montserrat;-inkscape-font-specification:'Montserrat Semi-Bold';text-align:center;text-anchor:middle;fill:#ffffff;fill-opacity:1;stroke-width:0.0939684"
           d="m 202.52473,183.51073 h -0.75223 l -0.19517,-0.57034 h -1.04593 l -0.19516,0.57034 h -0.73329 l 1.04214,-2.82137 h 0.8375 z m -1.12361,-1.08762 -0.34675,-1.01183 -0.34675,1.01183 z" />
        <path
           id="path37"
           style="font-style:normal;font-variant:normal;font-weight:600;font-stretch:normal;font-size:3.88056px;font-family:Montserrat;-inkscape-font-specification:'Montserrat Semi-Bold';text-align:center;text-anchor:middle;fill:#ffffff;fill-opacity:1;stroke-width:0.0939684"
           d="m 204.96903,183.51073 h -2.03502 v -2.82137 h 0.72761 v 2.27566 h 1.30741 z" />
      </g>
      <g
         style="stroke:#1d1d1d;stroke-width:0.785988;stroke-miterlimit:4;stroke-dasharray:none;stroke-opacity:1"
         transform="matrix(0.89059771,0,0,0.89059771,21.081381,18.574645)"
         id="g1401">
        <path
           d="m 200.26926,169.78296 a 7.5732923,7.5732923 0 0 1 -7.57329,7.57329 7.5732923,7.5732923 0 0 1 -7.57329,-7.57329 7.5732923,7.5732923 0 0 1 7.57329,-7.57329 7.5732923,7.5732923 0 0 1 7.57329,7.57329"
           style="opacity:1;fill:none;fill-opacity:1;stroke:#1d1d1d;stroke-width:0.785988;stroke-linejoin:miter;stroke-miterlimit:4;stroke-dasharray:none;stroke-opacity:1;paint-order:markers fill stroke"
           id="path1351" />
        <path
           d="m 200.26926,169.78296 a 7.5732923,6.0364923 0 0 1 -7.57329,6.03649 7.5732923,6.0364923 0 0 1 -7.57329,-6.03649 7.5732923,6.0364923 0 0 1 7.57329,-6.03649 7.5732923,6.0364923 0 0 1 7.57329,6.03649"
           style="opacity:1;fill:none;fill-opacity:1;stroke:#1d1d1d;stroke-width:0.785988;stroke-linejoin:miter;stroke-miterlimit:4;stroke-dasharray:none;stroke-opacity:1;paint-order:markers fill stroke"
           id="circle1368" />
        <path
           d="m 200.26926,169.78296 a 7.5732923,3.497432 0 0 1 -7.57329,3.49743 7.5732923,3.497432 0 0 1 -7.57329,-3.49743 7.5732923,3.497432 0 0 1 7.57329,-3.49743 7.5732923,3.497432 0 0 1 7.57329,3.49743"
           style="opacity:1;fill:none;fill-opacity:1;stroke:#1d1d1d;stroke-width:0.785988;stroke-linejoin:miter;stroke-miterlimit:4;stroke-dasharray:none;stroke-opacity:1;paint-order:markers fill stroke"
           id="ellipse1370" />
        <path
           d="m 198.61561,169.78296 a 5.9196463,7.5732923 0 0 1 -5.91964,7.57329 5.9196463,7.5732923 0 0 1 -5.91965,-7.57329 5.9196463,7.5732923 0 0 1 5.91965,-7.57329 5.9196463,7.5732923 0 0 1 5.91964,7.57329"
           style="opacity:1;fill:none;fill-opacity:1;stroke:#1d1d1d;stroke-width:0.785988;stroke-linejoin:miter;stroke-miterlimit:4;stroke-dasharray:none;stroke-opacity:1;paint-order:markers fill stroke"
           id="circle1389" />
        <path
           d="m 196.34776,169.78296 a 3.6517892,7.5732923 0 0 1 -3.65179,7.57329 3.6517892,7.5732923 0 0 1 -3.65179,-7.57329 3.6517892,7.5732923 0 0 1 3.65179,-7.57329 3.6517892,7.5732923 0 0 1 3.65179,7.57329"
           style="opacity:1;fill:none;fill-opacity:1;stroke:#1d1d1d;stroke-width:0.785988;stroke-linejoin:miter;stroke-miterlimit:4;stroke-dasharray:none;stroke-opacity:1;paint-order:markers fill stroke"
           id="ellipse1391" />
        <path
           d="m 193.98541,169.78296 a 1.289438,7.5732923 0 0 1 -1.28944,7.57329 1.289438,7.5732923 0 0 1 -1.28944,-7.57329 1.289438,7.5732923 0 0 1 1.28944,-7.57329 1.289438,7.5732923 0 0 1 1.28944,7.57329"
           style="opacity:1;fill:none;fill-opacity:1;stroke:#1d1d1d;stroke-width:0.785988;stroke-linejoin:miter;stroke-miterlimit:4;stroke-dasharray:none;stroke-opacity:1;paint-order:markers fill stroke"
           id="ellipse1393" />
      </g>
    </g>
  </g>
</svg>
